<svg width="142" height="26" viewBox="0 0 142 26" fill="none" xmlns="http://www.w3.org/2000/svg">
<path d="M10.0558 0L4.35686 0L8.50875 4L10.0558 0Z" fill="white"/>
<path d="M34.9647 26H0L10.0558 0L21.7107 0L14.2333 19.3333H25.8882L33.3656 0H45.0205L34.9647 26Z" fill="white"/>
<path d="M59.4732 6.66667L54.5742 19.3333H77.884L75.3056 26H40.3409L50.3967 0H85.3614L82.783 6.66667H59.4732Z" fill="white"/>
<path d="M99.6687 6.66667L92.1804 26H80.5086L87.9969 6.66667H82.7792L85.3614 0H113.923L111.341 6.66667H99.6687Z" fill="white"/>
<path fill-rule="evenodd" clip-rule="evenodd" d="M119.248 0H116.596L106.339 26H108.991L119.248 0ZM121.974 0H127.639L117.329 26H111.664L121.974 0ZM130.352 0H142L131.703 26H120.055L130.352 0Z" fill="#FF001D"/>
</svg>
